# xmcd CD database file
#
# Track frame offsets:
#	150
#	19895
#	40751
#	55677
#	72992
#	87501
#	103741
#	117278
#	130369
#	147714
#	167646
#
# Disc length: 2430 seconds
#
# Revision: 3
# Processed by: cddbd v1.5.2PL0 Copyright (c) Steve Scherf et al.
# Submitted via: CDex 1.79
#
DISCID=9f097c0b
DTITLE=Katrina Elam - Katrina Elam
DYEAR=2004
DGENRE=Country
TTITLE0=Strong Anything
TTITLE1=No End In Sight
TTITLE2=The Breakup Song
TTITLE3=I Want A Cowboy
TTITLE4=Unbreakable
TTITLE5=Flowers By The Side Of The Road
TTITLE6=Drop Dead Gorgeous
TTITLE7=Normal
TTITLE8=I Won't Say Goodbye
TTITLE9=Home Running Away
TTITLE10=Prelude To The Kiss
EXTD=YEAR: 2004
EXTT0=
EXTT1=
EXTT2=
EXTT3=
EXTT4=
EXTT5=
EXTT6=
EXTT7=
EXTT8=
EXTT9=
EXTT10=
PLAYORDER=
